<svg width="14" height="14" viewBox="0 0 14 14" fill="none" xmlns="http://www.w3.org/2000/svg">
<path d="M0.5 3.5C0.5 9.02267 4.97733 13.5 10.5 13.5H12C12.3978 13.5 12.7794 13.342 13.0607 13.0607C13.342 12.7794 13.5 12.3978 13.5 12V11.0853C13.5 10.7413 13.266 10.4413 12.932 10.358L9.98333 9.62067C9.69 9.54733 9.382 9.65733 9.20133 9.89867L8.55467 10.7607C8.36667 11.0113 8.042 11.122 7.748 11.014C6.65659 10.6128 5.66544 9.97906 4.84319 9.15681C4.02094 8.33456 3.38725 7.34341 2.986 6.252C2.878 5.958 2.98867 5.63333 3.23933 5.44533L4.10133 4.79867C4.34333 4.618 4.45267 4.30933 4.37933 4.01667L3.642 1.068C3.60143 0.905796 3.50781 0.761802 3.37604 0.658891C3.24426 0.555981 3.08187 0.500056 2.91467 0.5H2C1.60218 0.5 1.22064 0.658035 0.93934 0.93934C0.658035 1.22064 0.5 1.60218 0.5 2V3.5Z" fill="white"/>
</svg>
