<svg width="28" height="20" viewBox="0 0 28 20" fill="none" xmlns="http://www.w3.org/2000/svg">
<path d="M27.1754 3.71087C27.0197 3.15555 26.7165 2.65279 26.2979 2.25603C25.8675 1.84708 25.34 1.55454 24.7652 1.40604C22.6138 0.838993 13.9948 0.838994 13.9948 0.838994C10.4016 0.798112 6.80925 0.977919 3.2381 1.3774C2.66325 1.53687 2.13673 1.83595 1.70536 2.24801C1.28151 2.65583 0.974503 3.15872 0.814127 3.70973C0.428872 5.78516 0.24169 7.8925 0.255102 10.0033C0.241355 12.1123 0.428079 14.2189 0.814127 16.297C0.971066 16.8457 1.27693 17.3463 1.70192 17.7507C2.12692 18.155 2.65616 18.4471 3.2381 18.6018C5.41807 19.1677 13.9948 19.1677 13.9948 19.1677C17.5925 19.2086 21.1894 19.0288 24.7652 18.6293C25.34 18.4808 25.8675 18.1883 26.2979 17.7793C26.7217 17.3749 27.023 16.872 27.1742 16.3245C27.5695 14.2498 27.7618 12.1416 27.7482 10.0297C27.7779 7.90884 27.5859 5.79068 27.1754 3.70973V3.71087ZM11.2546 13.9257V6.08215L18.4257 10.0045L11.2546 13.9257Z" fill="white"/>
</svg>
