<svg width="16" height="16" viewBox="0 0 16 16" fill="none" xmlns="http://www.w3.org/2000/svg">
<path d="M14.6666 1.99999V14C14.6666 14.1768 14.5963 14.3464 14.4713 14.4714C14.3463 14.5964 14.1767 14.6667 13.9999 14.6667H10.5333V9.50333H12.2666L12.5266 7.49133H10.5333V6.20599C10.5333 5.62333 10.6946 5.22666 11.5333 5.22666H12.5999V3.42666C12.0842 3.3719 11.5659 3.34541 11.0473 3.34733C10.6943 3.32103 10.3399 3.37234 10.0089 3.49766C9.67786 3.62298 9.37831 3.81926 9.13128 4.07272C8.88424 4.32617 8.6957 4.63065 8.57891 4.96476C8.46212 5.29887 8.41991 5.6545 8.45525 6.00666V7.49133H6.71725V9.50333H8.45525V14.6667H1.99992C1.82311 14.6667 1.65354 14.5964 1.52851 14.4714C1.40349 14.3464 1.33325 14.1768 1.33325 14V1.99999C1.33325 1.82318 1.40349 1.65361 1.52851 1.52859C1.65354 1.40357 1.82311 1.33333 1.99992 1.33333H13.9999C14.1767 1.33333 14.3463 1.40357 14.4713 1.52859C14.5963 1.65361 14.6666 1.82318 14.6666 1.99999Z" fill="white"/>
</svg>
