<svg width="172" height="52" viewBox="0 0 172 52" fill="none" xmlns="http://www.w3.org/2000/svg">
<g clip-path="url(#clip0_23_421)">
<path d="M165.274 51.1157H7.39944C3.92779 51.1157 1.08447 48.3055 1.08447 44.8742V7.42525C1.08447 3.99399 3.92779 1.18376 7.39944 1.18376H165.274C168.745 1.18376 171.589 3.99399 171.589 7.42525V44.8742C171.589 48.3055 168.745 51.1157 165.274 51.1157Z" fill="black"/>
<path d="M165.274 2.18396C168.197 2.18396 170.577 4.53544 170.577 7.42525V44.8742C170.577 47.764 168.197 50.1155 165.274 50.1155H7.39944C4.47561 50.1155 2.09645 47.764 2.09645 44.8742V7.42525C2.09645 4.53544 4.47561 2.18396 7.39944 2.18396H165.274ZM165.274 1.18376H7.39944C3.92779 1.18376 1.08447 3.99399 1.08447 7.42525V44.8742C1.08447 48.3055 3.92779 51.1157 7.39944 51.1157H165.274C168.745 51.1157 171.589 48.3055 171.589 44.8742V7.42525C171.589 3.99399 168.745 1.18376 165.274 1.18376Z" fill="#A6A6A6"/>
<path d="M60.9726 13.9711C60.9726 15.0134 60.6568 15.8482 60.0348 16.4708C59.3196 17.2089 58.3882 17.5803 57.2467 17.5803C56.1558 17.5803 55.2244 17.2026 54.4602 16.4583C53.6946 15.7031 53.3125 14.7763 53.3125 13.6668C53.3125 12.5574 53.6946 11.6305 54.4602 10.8816C55.2244 10.131 56.1558 9.75342 57.2467 9.75342C57.7898 9.75342 58.3076 9.8642 58.8018 10.0702C59.2944 10.2777 59.6954 10.5586 59.9858 10.905L59.3259 11.5635C58.8192 10.9721 58.1292 10.6803 57.2467 10.6803C56.451 10.6803 55.7611 10.9549 55.1754 11.5088C54.596 12.0643 54.3055 12.7837 54.3055 13.6668C54.3055 14.55 54.596 15.2756 55.1754 15.8311C55.7611 16.3788 56.451 16.6596 57.2467 16.6596C58.0914 16.6596 58.8018 16.3788 59.3622 15.8248C59.7317 15.4581 59.9416 14.9526 59.9969 14.3066H57.2467V13.4047H60.9157C60.9599 13.5997 60.9726 13.7885 60.9726 13.9711Z" fill="white" stroke="white" stroke-width="0.251125" stroke-miterlimit="10"/>
<path d="M66.7934 10.8439H63.347V13.2156H66.454V14.1175H63.347V16.4893H66.7934V17.4084H62.3713V9.9248H66.7934V10.8439Z" fill="white" stroke="white" stroke-width="0.251125" stroke-miterlimit="10"/>
<path d="M70.9011 17.4084H69.9255V10.8439H67.8115V9.9248H73.0166V10.8439H70.9011V17.4084Z" fill="white" stroke="white" stroke-width="0.251125" stroke-miterlimit="10"/>
<path d="M76.7837 17.4084V9.9248H77.7578V17.4084H76.7837Z" fill="white" stroke="white" stroke-width="0.251125" stroke-miterlimit="10"/>
<path d="M82.0757 17.4084H81.1079V10.8439H78.9861V9.9248H84.1975V10.8439H82.0757V17.4084Z" fill="white" stroke="white" stroke-width="0.251125" stroke-miterlimit="10"/>
<path d="M94.052 16.4459C93.3053 17.2026 92.3801 17.5803 91.2766 17.5803C90.1667 17.5803 89.2416 17.2026 88.4948 16.4459C87.7497 15.6906 87.3787 14.7638 87.3787 13.6668C87.3787 12.5699 87.7497 11.643 88.4948 10.8878C89.2416 10.131 90.1667 9.75342 91.2766 9.75342C92.3738 9.75342 93.299 10.131 94.0457 10.8941C94.7972 11.6555 95.1682 12.5761 95.1682 13.6668C95.1682 14.7638 94.7972 15.6906 94.052 16.4459ZM89.2163 15.8186C89.7784 16.3788 90.4619 16.6596 91.2766 16.6596C92.0849 16.6596 92.7748 16.3788 93.3305 15.8186C93.891 15.2584 94.1751 14.5391 94.1751 13.6668C94.1751 12.7946 93.891 12.0753 93.3305 11.5151C92.7748 10.9549 92.0849 10.674 91.2766 10.674C90.4619 10.674 89.7784 10.9549 89.2163 11.5151C88.6559 12.0753 88.3717 12.7946 88.3717 13.6668C88.3717 14.5391 88.6559 15.2584 89.2163 15.8186Z" fill="white" stroke="white" stroke-width="0.251125" stroke-miterlimit="10"/>
<path d="M96.5369 17.4084V9.9248H97.7209L101.403 15.745H101.445L101.403 14.3063V9.9248H102.377V17.4084H101.36L97.5046 11.3011H97.462L97.5046 12.746V17.4084H96.5369Z" fill="white" stroke="white" stroke-width="0.251125" stroke-miterlimit="10"/>
<path d="M87.1385 28.3374C84.1721 28.3374 81.7487 30.5687 81.7487 33.6473C81.7487 36.701 84.1721 38.9557 87.1385 38.9557C90.1113 38.9557 92.5347 36.701 92.5347 33.6473C92.5347 30.5687 90.1113 28.3374 87.1385 28.3374ZM87.1385 36.8648C85.5109 36.8648 84.1105 35.5369 84.1105 33.6473C84.1105 31.7327 85.5109 30.4283 87.1385 30.4283C88.7662 30.4283 90.1729 31.7327 90.1729 33.6473C90.1729 35.5369 88.7662 36.8648 87.1385 36.8648ZM75.3785 28.3374C72.4057 28.3374 69.9887 30.5687 69.9887 33.6473C69.9887 36.701 72.4057 38.9557 75.3785 38.9557C78.3497 38.9557 80.7683 36.701 80.7683 33.6473C80.7683 30.5687 78.3497 28.3374 75.3785 28.3374ZM75.3785 36.8648C73.7492 36.8648 72.3441 35.5369 72.3441 33.6473C72.3441 31.7327 73.7492 30.4283 75.3785 30.4283C77.0062 30.4283 78.4065 31.7327 78.4065 33.6473C78.4065 35.5369 77.0062 36.8648 75.3785 36.8648ZM61.3845 29.9648V32.2211H66.8359C66.6765 33.4819 66.2502 34.4088 65.5966 35.0548C64.8009 35.835 63.5616 36.701 61.3845 36.701C58.0297 36.701 55.4027 34.0249 55.4027 30.7091C55.4027 27.3933 58.0297 24.7173 61.3845 24.7173C63.1985 24.7173 64.5183 25.4179 65.4924 26.326L67.1011 24.736C65.7387 23.4503 63.9263 22.4626 61.3845 22.4626C56.7841 22.4626 52.9177 26.1622 52.9177 30.7091C52.9177 35.2561 56.7841 38.9557 61.3845 38.9557C63.871 38.9557 65.7387 38.1506 67.2069 36.6401C68.7115 35.1531 69.1803 33.0622 69.1803 31.3739C69.1803 30.8496 69.1361 30.3674 69.0572 29.9648H61.3845ZM118.608 31.714C118.164 30.5266 116.795 28.3374 114.007 28.3374C111.244 28.3374 108.944 30.4891 108.944 33.6473C108.944 36.6214 111.221 38.9557 114.272 38.9557C116.74 38.9557 118.164 37.4687 118.75 36.6027L116.918 35.3965C116.307 36.2797 115.475 36.8648 114.272 36.8648C113.077 36.8648 112.22 36.3234 111.671 35.2561L118.855 32.3179L118.608 31.714ZM111.282 33.4819C111.221 31.4347 112.891 30.3861 114.088 30.3861C115.025 30.3861 115.821 30.8496 116.086 31.5127L111.282 33.4819ZM105.442 38.6327H107.804V23.029H105.442V38.6327ZM101.575 29.5201H101.496C100.965 28.8991 99.9532 28.3374 98.6713 28.3374C95.9811 28.3374 93.5214 30.6717 93.5214 33.6645C93.5214 36.6401 95.9811 38.9557 98.6713 38.9557C99.9532 38.9557 100.965 38.3893 101.496 37.7495H101.575V38.511C101.575 40.5411 100.477 41.6318 98.7076 41.6318C97.2646 41.6318 96.3694 40.6019 96 39.7359L93.9461 40.5832C94.5381 41.9906 96.1058 43.7227 98.7076 43.7227C101.477 43.7227 103.813 42.1123 103.813 38.1943V28.6604H101.575V29.5201ZM98.8733 36.8648C97.2457 36.8648 95.8832 35.5182 95.8832 33.6645C95.8832 31.7936 97.2457 30.4283 98.8733 30.4283C100.477 30.4283 101.742 31.7936 101.742 33.6645C101.742 35.5182 100.477 36.8648 98.8733 36.8648ZM129.665 23.029H124.016V38.6327H126.372V32.7205H129.665C132.281 32.7205 134.847 30.8496 134.847 27.8739C134.847 24.8999 132.275 23.029 129.665 23.029ZM129.727 30.55H126.372V25.1995H129.727C131.485 25.1995 132.489 26.6428 132.489 27.8739C132.489 29.0817 131.485 30.55 129.727 30.55ZM144.287 28.3077C142.586 28.3077 140.816 29.0505 140.088 30.6967L142.178 31.5627C142.628 30.6967 143.455 30.4158 144.33 30.4158C145.552 30.4158 146.791 31.1414 146.81 32.4224V32.5863C146.384 32.3428 145.471 31.9824 144.349 31.9824C142.098 31.9824 139.804 33.2073 139.804 35.4932C139.804 37.5841 141.648 38.9307 143.721 38.9307C145.306 38.9307 146.18 38.2239 146.73 37.4016H146.81V38.6077H149.085V32.6222C149.085 29.8556 146.995 28.3077 144.287 28.3077ZM144.003 36.8586C143.233 36.8586 142.159 36.481 142.159 35.5369C142.159 34.3292 143.498 33.8658 144.657 33.8658C145.694 33.8658 146.18 34.092 146.81 34.3901C146.626 35.835 145.367 36.8586 144.003 36.8586ZM157.374 28.6494L154.666 35.4137H154.586L151.786 28.6494H149.246L153.452 38.1022L151.052 43.3622H153.514L159.994 28.6494H157.374ZM136.141 38.6327H138.503V23.029H136.141V38.6327Z" fill="white"/>
<path d="M14.2639 10.5942C13.8929 10.978 13.6782 11.5756 13.6782 12.3496V39.9557C13.6782 40.7297 13.8929 41.3273 14.2639 41.7111L14.3555 41.7954L30.0072 26.3321V25.967L14.3555 10.5037L14.2639 10.5942Z" fill="url(#paint0_linear_23_421)"/>
<path d="M35.2185 31.4893L30.0071 26.3322V25.9671L35.2248 20.8101L35.3416 20.8772L41.5208 24.3521C43.2843 25.3383 43.2843 26.9611 41.5208 27.9534L35.3416 31.4222L35.2185 31.4893Z" fill="url(#paint1_linear_23_421)"/>
<path d="M35.3417 31.4222L30.0071 26.1497L14.2639 41.7113C14.8496 42.3199 15.8048 42.3932 16.8909 41.7847L35.3417 31.4222Z" fill="url(#paint2_linear_23_421)"/>
<path d="M35.3417 20.8769L16.8909 10.5145C15.8048 9.91216 14.8496 9.9855 14.2639 10.594L30.0071 26.1494L35.3417 20.8769Z" fill="url(#paint3_linear_23_421)"/>
</g>
<defs>
<linearGradient id="paint0_linear_23_421" x1="28.6175" y1="40.2432" x2="7.66946" y2="19.0486" gradientUnits="userSpaceOnUse">
<stop stop-color="#00A0FF"/>
<stop offset="0.0066" stop-color="#00A1FF"/>
<stop offset="0.2601" stop-color="#00BEFF"/>
<stop offset="0.5122" stop-color="#00D2FF"/>
<stop offset="0.7604" stop-color="#00DFFF"/>
<stop offset="1" stop-color="#00E3FF"/>
</linearGradient>
<linearGradient id="paint1_linear_23_421" x1="43.8172" y1="26.1479" x2="13.2566" y2="26.1479" gradientUnits="userSpaceOnUse">
<stop stop-color="#FFE000"/>
<stop offset="0.4087" stop-color="#FFBD00"/>
<stop offset="0.7754" stop-color="#FFA500"/>
<stop offset="1" stop-color="#FF9C00"/>
</linearGradient>
<linearGradient id="paint2_linear_23_421" x1="32.4409" y1="23.2835" x2="4.0337" y2="-5.45813" gradientUnits="userSpaceOnUse">
<stop stop-color="#FF3A44"/>
<stop offset="1" stop-color="#C31162"/>
</linearGradient>
<linearGradient id="paint3_linear_23_421" x1="10.301" y1="50.8955" x2="22.9861" y2="38.0612" gradientUnits="userSpaceOnUse">
<stop stop-color="#32A071"/>
<stop offset="0.0685" stop-color="#2DA771"/>
<stop offset="0.4762" stop-color="#15CF74"/>
<stop offset="0.8009" stop-color="#06E775"/>
<stop offset="1" stop-color="#00F076"/>
</linearGradient>
<clipPath id="clip0_23_421">
<rect width="171" height="50.4231" fill="white" transform="translate(0.796875 0.788574)"/>
</clipPath>
</defs>
</svg>
