<svg width="14" height="11" viewBox="0 0 22 19" fill="none" xmlns="http://www.w3.org/2000/svg">
<path d="M21.8002 5.45357V15.075C21.8002 15.9701 21.4446 16.8286 20.8117 17.4615C20.1787 18.0944 19.3203 18.45 18.4252 18.45H3.5752C2.68009 18.45 1.82165 18.0944 1.18871 17.4615C0.555775 16.8286 0.200195 15.9701 0.200195 15.075V5.45357L10.6573 11.6069C10.7612 11.6681 10.8796 11.7005 11.0002 11.7005C11.1208 11.7005 11.2392 11.6681 11.3431 11.6069L21.8002 5.45357ZM18.4252 0.900024C19.2556 0.899894 20.057 1.20594 20.6759 1.75962C21.2949 2.3133 21.6879 3.07574 21.7799 3.90107L11.5072 9.94378C11.1943 10.1279 10.8061 10.1279 10.4932 9.94378L0.220445 3.90107C0.312459 3.07574 0.705533 2.3133 1.32447 1.75962C1.9434 1.20594 2.74475 0.899894 3.5752 0.900024H18.4252Z" fill="#0BBC5A"/>
</svg>
