<svg width="16" height="16" viewBox="0 0 16 16" fill="none" xmlns="http://www.w3.org/2000/svg">
<path d="M7.99992 4.57666C7.32285 4.57666 6.66098 4.77744 6.09802 5.1536C5.53505 5.52976 5.09627 6.06441 4.83717 6.68994C4.57807 7.31547 4.51027 8.00379 4.64236 8.66785C4.77445 9.33192 5.10049 9.94189 5.57926 10.4207C6.05802 10.8994 6.668 11.2255 7.33206 11.3575C7.99612 11.4896 8.68444 11.4218 9.30997 11.1627C9.9355 10.9036 10.4702 10.4649 10.8463 9.9019C11.2225 9.33893 11.4233 8.67707 11.4233 7.99999C11.4233 7.09207 11.0626 6.22133 10.4206 5.57933C9.77858 4.93733 8.90784 4.57666 7.99992 4.57666ZM7.99992 10.2227C7.56032 10.2227 7.13059 10.0923 6.76507 9.84807C6.39956 9.60384 6.11467 9.25671 5.94644 8.85057C5.77821 8.44443 5.7342 7.99753 5.81996 7.56637C5.90572 7.13522 6.11741 6.73918 6.42826 6.42833C6.7391 6.11749 7.13514 5.9058 7.5663 5.82004C7.99745 5.73427 8.44436 5.77829 8.8505 5.94652C9.25664 6.11475 9.60377 6.39963 9.848 6.76515C10.0922 7.13066 10.2226 7.56039 10.2226 7.99999C10.2226 8.58948 9.98841 9.15483 9.57158 9.57166C9.15475 9.98849 8.58941 10.2227 7.99992 10.2227ZM12.3593 4.44133C12.3593 4.59955 12.3123 4.75423 12.2244 4.88578C12.1365 5.01734 12.0116 5.11988 11.8654 5.18043C11.7192 5.24098 11.5584 5.25682 11.4032 5.22596C11.248 5.19509 11.1054 5.1189 10.9936 5.00701C10.8817 4.89513 10.8055 4.75258 10.7746 4.5974C10.7438 4.44222 10.7596 4.28136 10.8201 4.13518C10.8807 3.989 10.9832 3.86406 11.1148 3.77615C11.2464 3.68825 11.401 3.64133 11.5593 3.64133C11.6643 3.64133 11.7683 3.66202 11.8654 3.70222C11.9625 3.74243 12.0507 3.80136 12.1249 3.87564C12.1992 3.94993 12.2582 4.03812 12.2984 4.13518C12.3386 4.23224 12.3593 4.33627 12.3593 4.44133ZM14.3173 3.63333C14.1495 3.18841 13.887 2.78532 13.5479 2.45199C13.2152 2.11293 12.8125 1.8506 12.3679 1.68333C11.8498 1.48918 11.3024 1.38457 10.7493 1.37399C10.0386 1.34133 9.81125 1.33333 7.99992 1.33333C6.18858 1.33333 5.96192 1.34066 5.25059 1.37399C4.69763 1.38475 4.15051 1.48935 3.63259 1.68333C3.18804 1.85071 2.78535 2.11303 2.45259 2.45199C2.11291 2.78484 1.85031 3.18807 1.68325 3.63333C1.48935 4.15128 1.38475 4.69838 1.37392 5.25133C1.34059 5.96199 1.33325 6.18933 1.33325 7.99999C1.33325 9.81066 1.34059 10.038 1.37392 10.7487C1.38475 11.3016 1.48935 11.8487 1.68325 12.3667C1.85031 12.8119 2.11291 13.2152 2.45259 13.548C2.78575 13.8868 3.18862 14.1491 3.63325 14.3167C4.15122 14.5105 4.69831 14.6151 5.25125 14.626C5.96258 14.6587 6.18992 14.6667 7.99992 14.6667C9.80992 14.6667 10.0379 14.6593 10.7486 14.626C11.3018 14.6152 11.8491 14.5106 12.3673 14.3167C12.8102 14.1454 13.2125 13.8835 13.5483 13.5477C13.8841 13.2119 14.146 12.8096 14.3173 12.3667C14.5115 11.8488 14.6161 11.3016 14.6266 10.7487C14.6593 10.0373 14.6666 9.81066 14.6666 7.99999C14.6666 6.18933 14.6593 5.96199 14.6266 5.25133C14.6158 4.69837 14.5112 4.15126 14.3173 3.63333ZM13.4273 10.694C13.4233 11.1171 13.3464 11.5364 13.1999 11.9333C13.0891 12.2213 12.9191 12.4828 12.7009 12.701C12.4827 12.9192 12.2212 13.0892 11.9333 13.2C11.5367 13.3467 11.118 13.4242 10.6953 13.4293C9.99258 13.4613 9.78125 13.468 8.00059 13.468C6.21992 13.468 6.00992 13.4613 5.30725 13.4293C4.88361 13.4245 4.46395 13.347 4.06659 13.2C3.777 13.0931 3.51503 12.9227 3.29992 12.7013C3.07839 12.4863 2.90797 12.2243 2.80125 11.9347C2.65392 11.5383 2.57633 11.1195 2.57192 10.6967C2.54125 9.99133 2.53325 9.78066 2.53325 7.99999C2.53325 6.21933 2.53992 6.00933 2.57192 5.30599C2.57759 4.88269 2.65583 4.4635 2.80325 4.06666C2.91013 3.77707 3.08053 3.5151 3.30192 3.29999C3.51591 3.07788 3.7773 2.90696 4.06659 2.79999C4.46371 2.65335 4.88326 2.57665 5.30659 2.57333C6.00925 2.54066 6.22058 2.53333 7.99992 2.53333C9.77925 2.53333 9.99125 2.54066 10.6946 2.57266C11.1174 2.57713 11.5364 2.65402 11.9333 2.79999C12.2212 2.91084 12.4827 3.08084 12.7009 3.29901C12.9191 3.51719 13.0891 3.7787 13.1999 4.06666C13.3472 4.463 13.4248 4.88185 13.4293 5.30466C13.4599 6.00933 13.4666 6.21999 13.4666 7.99999C13.4666 9.77999 13.4599 9.99066 13.4273 10.694Z" fill="white"/>
</svg>
