<svg width="44" height="44" viewBox="0 0 44 44" fill="none" xmlns="http://www.w3.org/2000/svg">
<g clip-path="url(#clip0_113_242)">
<circle cx="22" cy="22" r="22" fill="#0BBC5A"/>
<path d="M21.997 18.3318C19.9772 18.3318 18.3289 19.9801 18.3289 22C18.3289 24.0199 19.9772 25.6682 21.997 25.6682C24.0169 25.6682 25.6652 24.0199 25.6652 22C25.6652 19.9801 24.0169 18.3318 21.997 18.3318ZM32.9988 22C32.9988 20.481 33.0125 18.9757 32.9272 17.4594C32.8419 15.6982 32.4402 14.1352 31.1523 12.8473C29.8617 11.5567 28.3014 11.1577 26.5403 11.0724C25.0213 10.9871 23.516 11.0008 21.9998 11.0008C20.4808 11.0008 18.9756 10.9871 17.4593 11.0724C15.6982 11.1577 14.1351 11.5594 12.8473 12.8473C11.5567 14.1379 11.1577 15.6982 11.0724 17.4594C10.9871 18.9785 11.0008 20.4837 11.0008 22C11.0008 23.5163 10.9871 25.0243 11.0724 26.5406C11.1577 28.3018 11.5594 29.8648 12.8473 31.1527C14.1379 32.4433 15.6982 32.8423 17.4593 32.9276C18.9783 33.0129 20.4835 32.9992 21.9998 32.9992C23.5188 32.9992 25.024 33.0129 26.5403 32.9276C28.3014 32.8423 29.8645 32.4406 31.1523 31.1527C32.4429 29.8621 32.8419 28.3018 32.9272 26.5406C33.0153 25.0243 32.9988 23.519 32.9988 22ZM21.997 27.6441C18.8737 27.6441 16.3531 25.1234 16.3531 22C16.3531 18.8766 18.8737 16.3559 21.997 16.3559C25.1203 16.3559 27.641 18.8766 27.641 22C27.641 25.1234 25.1203 27.6441 21.997 27.6441ZM27.8722 17.4429C27.1429 17.4429 26.554 16.854 26.554 16.1248C26.554 15.3955 27.1429 14.8066 27.8722 14.8066C28.6014 14.8066 29.1903 15.3955 29.1903 16.1248C29.1905 16.2979 29.1565 16.4694 29.0904 16.6295C29.0242 16.7895 28.9271 16.9349 28.8047 17.0573C28.6822 17.1798 28.5369 17.2769 28.3768 17.343C28.2168 17.4092 28.0453 17.4431 27.8722 17.4429Z" fill="white"/>
</g>
<defs>
<clipPath id="clip0_113_242">
<rect width="44" height="44" fill="white"/>
</clipPath>
</defs>
</svg>
