<svg width="171" height="52" viewBox="0 0 171 52" fill="none" xmlns="http://www.w3.org/2000/svg">
<g clip-path="url(#clip0_23_519)">
<path d="M157.486 0H13.6436C13.1239 0 12.6041 0 12.0843 0C11.6945 0 11.1748 0 10.785 0C9.87538 0 8.83587 0.118182 7.92629 0.236364C7.01672 0.472727 6.10714 0.709091 5.19757 1.06364C4.28799 1.53636 3.50836 2.00909 2.85866 2.6C2.20897 3.19091 1.55927 3.9 1.16945 4.72727C0.779635 5.55455 0.519757 6.38182 0.259878 7.20909C0.129939 8.15454 0 8.98182 0 9.80909C0 10.1636 0 10.6364 0 10.9909V41.0091C0 41.3636 0 41.8364 0 42.1909C0 43.0182 0.129939 43.9636 0.259878 44.7909C0.389818 45.6182 0.779635 46.4455 1.16945 47.2727C1.55927 48.1 2.20897 48.8091 2.85866 49.4C3.50836 49.9909 4.28799 50.5818 5.19757 50.9364C6.10714 51.2909 7.01672 51.6455 7.92629 51.7636C8.83587 51.8818 9.87538 52 10.785 52C11.1748 52 11.6945 52 12.0843 52C12.6041 52 13.1239 52 13.6436 52H157.356C157.876 52 158.396 52 158.916 52C159.305 52 159.825 52 160.215 52C161.125 52 162.164 51.8818 163.074 51.7636C163.983 51.6455 164.893 51.2909 165.802 50.9364C166.712 50.5818 167.492 49.9909 168.141 49.4C168.791 48.8091 169.441 48.1 169.831 47.2727C170.22 46.4455 170.61 45.6182 170.74 44.7909C170.87 43.9636 171 43.0182 171 42.1909C171 41.8364 171 41.3636 171 41.0091C171 40.5364 171 40.0636 171 39.5909V12.5273C171 12.0545 171 11.5818 171 11.1091C171 10.7545 171 10.2818 171 9.92727C171 9.1 170.87 8.15454 170.74 7.32727C170.61 6.5 170.22 5.67273 169.831 4.84545C168.921 3.30909 167.492 2.00909 165.802 1.18182C164.893 0.827273 163.983 0.472727 163.074 0.354545C162.164 0.236364 161.125 0.118182 160.215 0.118182C159.825 0.118182 159.305 0.118182 158.916 0.118182C158.526 0 158.006 0 157.486 0Z" fill="#A6A6A6"/>
<path d="M11.815 51C11.4241 51 10.9029 51 10.512 51C9.59985 51 8.68774 50.8812 7.77564 50.7625C6.99383 50.6437 6.08173 50.4062 5.43022 50.0499C4.64842 49.6936 3.99692 49.2185 3.47571 48.7435C2.82421 48.2684 2.43331 47.5558 2.04241 46.962C1.6515 46.2494 1.3909 45.5368 1.2606 44.8242C1.1303 43.8741 1 43.0428 1 42.2114C1 41.9739 1 41.0238 1 41.0238V10.9762C1 10.9762 1 10.0261 1 9.7886C1 8.95724 1.1303 8.12589 1.2606 7.29454C1.3909 6.58195 1.6515 5.75059 2.04241 5.15677C2.43331 4.44418 2.95451 3.85036 3.47571 3.3753C4.12722 2.78147 4.77872 2.42518 5.43022 2.06888C6.21203 1.59382 6.99383 1.35629 7.90594 1.23753C8.81804 1.11876 9.73015 1 10.6423 1H11.9453H159.185H160.488C161.4 1 162.312 1.11876 163.094 1.23753C163.876 1.35629 164.788 1.59382 165.439 1.95012C166.873 2.66271 168.176 3.73159 168.958 5.15677C169.349 5.86936 169.609 6.58195 169.739 7.29454C169.87 8.12589 170 8.95724 170 9.7886C170 10.1449 170 10.5012 170 10.9762C170 11.4513 170 11.9264 170 12.4014V39.5986C170 40.0736 170 40.5487 170 41.0238C170 41.4988 170 41.8551 170 42.2114C170 43.0428 169.87 43.8741 169.739 44.5867C169.609 45.2993 169.349 46.1306 168.958 46.7245C168.567 47.4371 168.046 48.0309 167.524 48.5059C167.003 49.0998 166.221 49.4561 165.57 49.8124C164.788 50.1686 164.006 50.4062 163.224 50.5249C162.312 50.6437 161.4 50.7625 160.488 50.7625C160.097 50.7625 159.576 50.7625 159.185 50.7625H157.621L11.815 51Z" fill="black"/>
<path d="M39.2505 26.3546C39.2505 24.1091 40.4323 22.1 42.3232 20.9182C41.1414 19.2637 39.2505 18.2 37.1232 18.0819C34.8778 17.8455 32.8687 19.3818 31.6869 19.3818C30.5051 19.3818 28.8505 18.0819 26.9596 18.0819C24.4778 18.2 22.3505 19.5 21.1687 21.6273C18.6869 26 20.5778 32.3819 22.9414 35.9273C24.1232 37.7 25.5414 39.5909 27.4323 39.4728C29.205 39.3546 29.9141 38.2909 32.0414 38.2909C34.1687 38.2909 34.8778 39.4728 36.7687 39.3546C38.6596 39.3546 39.9596 37.5819 41.1414 35.9273C41.9687 34.7455 42.6778 33.3273 43.1505 31.9091C40.7869 31.2 39.2505 28.8364 39.2505 26.3546Z" fill="white"/>
<path d="M35.705 15.9548C36.7686 14.6548 37.2414 13.0002 37.1232 11.4639C35.4686 11.582 34.0504 12.4093 32.9868 13.5911C31.9232 14.773 31.4504 16.4275 31.4504 17.9639C33.105 17.9639 34.6413 17.2548 35.705 15.9548Z" fill="white"/>
<path d="M55.9142 35.3362H62.0596L63.596 39.709H66.196L60.4051 23.6362H57.6869L51.896 39.8271H54.496L55.9142 35.3362ZM61.4687 33.3271H56.6233L58.9869 26.2362H59.1051L61.4687 33.3271Z" fill="white"/>
<path d="M73.9958 39.8275C76.9503 39.8275 78.9594 37.4639 78.9594 33.8002C78.9594 30.1366 76.9503 27.7729 73.9958 27.7729C72.4594 27.7729 71.0413 28.482 70.214 29.9002V27.8911H67.8503V43.6093H70.214V37.8184C71.0413 39.1184 72.4594 39.8275 73.9958 39.8275ZM73.2867 29.782C75.1776 29.782 76.3594 31.3184 76.3594 33.8002C76.3594 36.1639 75.1776 37.8184 73.2867 37.8184C71.3958 37.8184 70.214 36.282 70.214 33.8002C70.214 31.4366 71.3958 29.782 73.2867 29.782Z" fill="white"/>
<path d="M86.8776 39.8275C89.8322 39.8275 91.8413 37.4639 91.8413 33.8002C91.8413 30.1366 89.8322 27.7729 86.8776 27.7729C85.3413 27.7729 83.9231 28.482 83.0958 29.9002V27.8911H80.7322V43.6093H83.0958V37.8184C83.9231 39.1184 85.3413 39.8275 86.8776 39.8275ZM86.1685 29.782C88.0594 29.782 89.2413 31.3184 89.2413 33.8002C89.2413 36.1639 88.0594 37.8184 86.1685 37.8184C84.2776 37.8184 83.0958 36.282 83.0958 33.8002C83.214 31.4366 84.3958 29.782 86.1685 29.782Z" fill="white"/>
<path d="M100.35 35.2181C100.587 36.8727 102.123 37.8181 104.25 37.8181C106.26 37.8181 107.796 36.7545 107.796 35.3363C107.796 34.0363 106.969 33.3272 104.841 32.8545L102.596 32.2636C99.6414 31.5545 98.2232 30.1363 98.2232 27.8908C98.2232 25.0545 100.705 23.1636 104.132 23.1636C107.56 23.1636 109.923 25.0545 109.923 27.8908H107.441C107.323 26.2363 105.905 25.2908 104.014 25.2908C102.005 25.2908 100.705 26.2363 100.705 27.6545C100.705 28.8363 101.532 29.4272 103.66 30.0181L105.432 30.4908C108.741 31.3181 110.16 32.6181 110.16 34.9818C110.16 38.0545 107.796 39.9454 103.896 39.9454C100.35 39.9454 97.8687 38.0545 97.7505 35.2181H100.35Z" fill="white"/>
<path d="M115.478 25.1729V28.0092H117.723V29.9001H115.478V36.4001C115.478 37.4638 115.95 37.9365 116.896 37.9365C117.132 37.9365 117.487 37.9365 117.723 37.9365V39.7092C117.25 39.8274 116.778 39.8274 116.423 39.8274C114.059 39.8274 113.114 38.8819 113.114 36.6365V29.9001H111.341V28.0092H113.114V25.1729H115.478Z" fill="white"/>
<path d="M124.696 27.7729C121.269 27.7729 119.141 30.1366 119.141 33.8002C119.141 37.582 121.269 39.8275 124.696 39.8275C128.123 39.8275 130.25 37.4639 130.25 33.8002C130.25 30.0184 128.123 27.7729 124.696 27.7729ZM124.696 29.782C126.705 29.782 127.769 31.3184 127.769 33.8002C127.769 36.4002 126.587 37.8184 124.696 37.8184C122.687 37.8184 121.623 36.282 121.623 33.8002C121.505 31.2002 122.687 29.782 124.696 29.782Z" fill="white"/>
<path d="M132.26 27.8911H134.623V29.9002C134.978 28.6002 136.16 27.7729 137.46 27.7729C137.696 27.7729 138.05 27.7729 138.287 27.8911V30.1366C137.932 30.0184 137.578 30.0184 137.223 30.0184C136.514 30.0184 135.805 30.2548 135.332 30.8457C134.86 31.3184 134.623 32.0275 134.741 32.7366V39.7093H132.378L132.26 27.8911Z" fill="white"/>
<path d="M144.196 39.8275C146.914 39.8275 148.923 38.4093 149.278 36.1639H147.032C146.56 37.2275 145.496 37.9366 144.314 37.8184C143.487 37.8184 142.541 37.4639 141.95 36.8729C141.36 36.282 141.005 35.3366 141.123 34.5093V34.3911H149.514V33.5639C149.514 30.0184 147.505 27.7729 144.196 27.7729C140.887 27.7729 138.76 30.1366 138.76 33.9184C138.641 37.582 140.769 39.8275 144.196 39.8275ZM147.032 32.7366H141.123C141.123 31.9093 141.478 31.2002 141.95 30.6093C142.541 30.0184 143.25 29.782 144.078 29.782C144.905 29.782 145.614 30.1366 146.205 30.6093C146.796 31.082 147.032 31.9093 147.032 32.7366Z" fill="white"/>
<path d="M59.1051 12.527C58.396 11.818 57.3324 11.3452 56.3869 11.4634H53.5505V19.2634H56.3869C58.7505 19.2634 60.0505 17.8452 60.0505 15.3634C60.0505 14.2998 59.8142 13.2361 59.1051 12.527ZM56.1505 18.0816H54.7324V12.527H56.1505C56.8596 12.527 57.5687 12.7634 58.0414 13.3543C58.5142 13.9452 58.7505 14.6543 58.6324 15.3634C58.7505 16.0725 58.5142 16.7816 58.0414 17.3725C57.5687 17.8452 56.8596 18.1998 56.1505 18.0816Z" fill="white"/>
<path d="M62.6504 13.5909C61.7049 14.1818 61.2322 15.1272 61.3504 16.1909C61.2322 17.2545 61.7049 18.3181 62.6504 18.7909C63.5958 19.3818 64.6595 19.3818 65.6049 18.7909C66.5504 18.2 67.0231 17.2545 66.9049 16.1909C67.0231 15.1272 66.5504 14.0636 65.6049 13.5909C64.6595 13.1181 63.4776 13.1181 62.6504 13.5909ZM64.0686 14.3C65.014 14.3 65.6049 15.0091 65.6049 16.3091C65.6049 17.6091 65.014 18.3181 64.0686 18.3181C63.0049 18.3181 62.5322 17.6091 62.5322 16.3091C62.5322 15.0091 63.1231 14.3 64.0686 14.3Z" fill="white"/>
<path d="M74.2322 19.2636H73.0504L71.8685 14.8909H71.7504L70.5685 19.2636H69.3867L67.7322 13.3545H68.914L69.9776 17.8454H70.0958L71.2776 13.3545H72.3413L73.5231 17.8454H73.6413L74.7049 13.3545H75.8867L74.2322 19.2636Z" fill="white"/>
<path d="M77.1868 13.3545H78.2504V14.3H78.3686C78.7231 13.5909 79.3141 13.2363 80.1413 13.2363C80.7322 13.2363 81.3231 13.4727 81.6777 13.8272C82.0322 14.3 82.2686 14.8909 82.1504 15.3636V19.1454H80.9686V15.6C80.9686 14.6545 80.6141 14.1818 79.6686 14.1818C79.3141 14.1818 78.8413 14.3 78.605 14.6545C78.3686 15.0091 78.2504 15.3636 78.2504 15.7181V19.1454H77.0686L77.1868 13.3545Z" fill="white"/>
<path d="M84.0413 10.9907H85.2231V19.1453H84.0413V10.9907Z" fill="white"/>
<path d="M87.9414 13.5909C86.9959 14.1818 86.5232 15.1272 86.6414 16.1909C86.5232 17.2545 86.9959 18.3181 87.9414 18.7909C88.8868 19.2636 89.9505 19.3818 90.8959 18.7909C91.8414 18.2 92.3141 17.2545 92.1959 16.1909C92.3141 15.1272 91.8414 14.0636 90.8959 13.5909C90.0687 13.1181 88.8868 13.1181 87.9414 13.5909ZM89.4777 14.3C90.4232 14.3 91.0141 15.0091 91.0141 16.3091C91.0141 17.6091 90.4232 18.3181 89.4777 18.3181C88.4141 18.3181 87.9414 17.6091 87.9414 16.3091C87.8232 15.0091 88.4141 14.3 89.4777 14.3Z" fill="white"/>
<path d="M95.6231 15.8363C94.2049 15.9545 93.4958 16.5454 93.4958 17.6091C93.4958 18.0818 93.7322 18.5545 94.0868 18.9091C94.4413 19.2636 94.914 19.3818 95.5049 19.3818C96.214 19.3818 96.9231 19.0272 97.2777 18.4363H97.3958V19.2636H98.4595V15.2454C98.4595 14.0636 97.6322 13.2363 96.214 13.2363C94.914 13.2363 93.9686 13.8272 93.8504 14.8909H94.914C95.0322 14.4181 95.5049 14.1818 96.0958 14.1818C96.9231 14.1818 97.2777 14.5363 97.2777 15.1272V15.6L95.6231 15.8363ZM97.1595 16.5454V17.0181C97.1595 17.3727 96.9231 17.7272 96.6868 17.9636C96.4504 18.2 95.9777 18.3181 95.6231 18.3181C95.0322 18.3181 94.5595 17.9636 94.5595 17.4909C94.5595 17.0181 94.914 16.6636 95.7413 16.6636L97.1595 16.5454Z" fill="white"/>
<path d="M102.36 13.2362C100.823 13.2362 99.8777 14.418 99.8777 16.3089C99.8777 18.1998 100.823 19.3816 102.36 19.3816C103.069 19.3816 103.778 19.0271 104.25 18.318H104.369V19.2634H105.432V10.9907H104.25V14.1816H104.132C103.778 13.5907 103.069 13.2362 102.36 13.2362ZM102.596 18.318C101.65 18.318 101.06 17.6089 101.06 16.3089C101.06 15.1271 101.65 14.2998 102.596 14.2998C103.541 14.2998 104.132 15.1271 104.132 16.3089C104.25 17.4907 103.66 18.318 102.596 18.318Z" fill="white"/>
<path d="M111.459 13.5909C110.514 14.1818 110.041 15.1272 110.159 16.1909C110.041 17.2545 110.514 18.3181 111.459 18.7909C112.405 19.3818 113.469 19.3818 114.414 18.7909C115.359 18.2 115.832 17.2545 115.714 16.1909C115.832 15.1272 115.359 14.0636 114.414 13.5909C113.469 13.1181 112.405 13.1181 111.459 13.5909ZM112.878 14.3C113.823 14.3 114.414 15.0091 114.414 16.3091C114.414 17.6091 113.823 18.3181 112.878 18.3181C111.814 18.3181 111.341 17.6091 111.341 16.3091C111.341 15.0091 111.932 14.3 112.878 14.3Z" fill="white"/>
<path d="M117.251 13.3545H118.314V14.3H118.432C118.787 13.5909 119.378 13.2363 120.205 13.2363C120.796 13.2363 121.387 13.4727 121.741 13.8272C122.096 14.3 122.332 14.8909 122.214 15.3636V19.1454H121.032V15.6C121.032 14.6545 120.678 14.1818 119.732 14.1818C119.378 14.1818 118.905 14.3 118.669 14.6545C118.432 15.0091 118.314 15.3636 118.314 15.7181V19.1454H117.132L117.251 13.3545Z" fill="white"/>
<path d="M128.714 11.9365V13.4729H130.014V14.4183H128.714V17.4911C128.714 18.082 128.951 18.3183 129.541 18.3183C129.66 18.3183 129.778 18.3183 130.014 18.3183V19.2638C129.778 19.2638 129.541 19.2638 129.423 19.382C128.123 19.382 127.651 18.9093 127.651 17.8456V14.5365H126.705V13.5911H127.651V12.0547L128.714 11.9365Z" fill="white"/>
<path d="M131.669 10.9907H132.851V14.1816H132.969C133.323 13.4725 134.032 13.118 134.741 13.118C135.332 13.118 135.923 13.3544 136.278 13.7089C136.632 14.1816 136.869 14.6544 136.751 15.2453V19.0271H135.569V15.4816C135.569 14.5362 135.096 14.0634 134.269 14.0634C133.914 14.0634 133.441 14.1816 133.205 14.418C132.969 14.6544 132.732 15.1271 132.851 15.4816V18.9089H131.669V10.9907Z" fill="white"/>
<path d="M140.769 19.2636C141.951 19.3818 143.014 18.6727 143.369 17.6091H142.305C142.069 18.0818 141.478 18.4363 140.887 18.3181C140.414 18.3181 140.06 18.2 139.705 17.8454C139.351 17.4909 139.232 17.1363 139.351 16.6636V16.5454H143.487V16.1909C143.487 14.3 142.541 13.2363 140.887 13.2363C140.06 13.2363 139.351 13.5909 138.878 14.1818C138.405 14.7727 138.169 15.6 138.169 16.3091C138.051 17.1363 138.287 17.8454 138.878 18.4363C139.232 19.0272 139.941 19.3818 140.769 19.2636ZM142.187 15.7181H139.232C139.232 15.3636 139.351 14.8909 139.705 14.6545C139.941 14.4181 140.414 14.1818 140.769 14.1818C141.123 14.1818 141.596 14.3 141.832 14.6545C142.069 14.8909 142.187 15.3636 142.187 15.7181Z" fill="white"/>
</g>
<defs>
<clipPath id="clip0_23_519">
<rect width="171" height="52" fill="white"/>
</clipPath>
</defs>
</svg>
