<svg width="16" height="16" viewBox="0 0 16 16" fill="none" xmlns="http://www.w3.org/2000/svg">
<g clip-path="url(#clip0_11_620)">
<path d="M15.2 5.63571V12.05C15.2 12.6467 14.963 13.219 14.541 13.641C14.1191 14.063 13.5468 14.3 12.95 14.3H3.05005C2.45331 14.3 1.88102 14.063 1.45906 13.641C1.0371 13.219 0.800049 12.6467 0.800049 12.05V5.63571L7.77145 9.73791C7.84071 9.77875 7.91964 9.8003 8.00005 9.8003C8.08045 9.8003 8.15939 9.77875 8.22865 9.73791L15.2 5.63571ZM12.95 2.60001C13.5037 2.59992 14.0379 2.80395 14.4505 3.17307C14.8632 3.54219 15.1252 4.05048 15.1865 4.60071L8.50706 8.52977C8.19412 8.71385 7.80598 8.71385 7.49303 8.52977L0.813549 4.60071C0.874891 4.05048 1.13694 3.54219 1.54956 3.17307C1.96219 2.80395 2.49642 2.59992 3.05005 2.60001H12.95Z" fill="white"/>
</g>
<defs>
<clipPath id="clip0_11_620">
<rect width="16" height="16" fill="white"/>
</clipPath>
</defs>
</svg>
