<svg width="80" height="80" viewBox="0 0 80 80" fill="none" xmlns="http://www.w3.org/2000/svg">
<circle cx="40" cy="40" r="40" fill="#4DAAEC"/>
<g clip-path="url(#clip0_113_282)">
<path fill-rule="evenodd" clip-rule="evenodd" d="M51.6096 26.7524C52.0421 26.5704 52.5154 26.5076 52.9804 26.5706C53.4453 26.6336 53.8849 26.8201 54.2533 27.1106C54.6218 27.4012 54.9056 27.7851 55.0753 28.2226C55.245 28.66 55.2943 29.135 55.2181 29.5979L51.2491 53.6727C50.8641 55.9949 48.3161 57.3267 46.1864 56.1699C44.4049 55.2022 41.7589 53.7112 39.3789 52.1554C38.1889 51.3767 34.5436 48.8829 34.9916 47.1084C35.3766 45.5912 41.5016 39.8897 45.0016 36.4999C46.3754 35.1682 45.7489 34.3999 44.1266 35.6249C40.0964 38.6664 33.6301 43.2917 31.4916 44.5937C29.6051 45.7417 28.6216 45.9377 27.4456 45.7417C25.3001 45.3847 23.3104 44.8317 21.6864 44.1579C19.4919 43.2479 19.5986 40.2309 21.6846 39.3524L51.6096 26.7524Z" fill="white"/>
</g>
<defs>
<clipPath id="clip0_113_282">
<rect width="42" height="42" fill="white" transform="translate(17 19)"/>
</clipPath>
</defs>
</svg>
