<svg width="16" height="16" viewBox="0 0 16 16" fill="none" xmlns="http://www.w3.org/2000/svg">
<path d="M13.0953 4.29466C13.6375 4.23126 14.1671 4.08699 14.6666 3.86666C14.2986 4.41658 13.8359 4.89671 13.2999 5.28466C13.3059 5.402 13.3086 5.51933 13.3086 5.638C13.3153 6.66179 13.1186 7.67671 12.7298 8.62384C12.3411 9.57097 11.768 10.4314 11.0439 11.1552C10.3199 11.8791 9.45922 12.4518 8.51196 12.8403C7.5647 13.2287 6.54971 13.4251 5.52592 13.418C4.03933 13.4192 2.58381 12.9924 1.33325 12.1887C1.54986 12.2144 1.76779 12.2273 1.98592 12.2273C3.21867 12.23 4.4164 11.8174 5.38592 11.056C4.81525 11.0452 4.26224 10.8563 3.80419 10.5158C3.34615 10.1752 3.00598 9.70003 2.83125 9.15666C3.00117 9.18859 3.17369 9.20466 3.34659 9.20466C3.58976 9.20506 3.83189 9.17299 4.06659 9.10933C3.44708 8.98464 2.88982 8.6494 2.48941 8.16052C2.089 7.67164 1.87012 7.05926 1.86992 6.42733V6.39266C2.24954 6.60403 2.6743 6.72131 3.10859 6.73466C2.52956 6.34769 2.11976 5.75462 1.96259 5.07615C1.80542 4.39768 1.9127 3.68482 2.26259 3.08266C2.94928 3.92772 3.80606 4.61889 4.77727 5.11127C5.74847 5.60365 6.81239 5.88623 7.89992 5.94066C7.85321 5.73618 7.82972 5.52708 7.82992 5.31733C7.82812 4.76772 7.99206 4.23033 8.30033 3.77531C8.60861 3.32029 9.04689 2.96877 9.55799 2.76664C10.0691 2.56451 10.6292 2.52115 11.1654 2.64222C11.7015 2.76329 12.1886 3.04317 12.5633 3.44533C13.1762 3.32403 13.7638 3.09854 14.3006 2.77866C14.0965 3.41373 13.668 3.95268 13.0953 4.29466Z" fill="white"/>
</svg>
