<svg width="80" height="80" viewBox="0 0 80 80" fill="none" xmlns="http://www.w3.org/2000/svg">
<circle cx="40" cy="40" r="40" fill="#7AE37D"/>
<g clip-path="url(#clip0_113_288)">
<path fill-rule="evenodd" clip-rule="evenodd" d="M49.4763 44.1686C48.9548 43.9078 46.398 42.6513 45.922 42.4763C45.446 42.3031 45.0995 42.2173 44.7513 42.7388C44.4048 43.2568 43.409 44.4293 43.1062 44.7758C42.8018 45.1241 42.499 45.1661 41.9792 44.9071C41.4595 44.6446 39.783 44.0968 37.7968 42.3258C36.2515 40.9468 35.2068 39.2441 34.904 38.7226C34.6013 38.2028 34.8708 37.9211 35.1315 37.6621C35.366 37.4293 35.6512 37.0548 35.912 36.7521C36.1727 36.4476 36.2585 36.2306 36.4318 35.8823C36.6068 35.5358 36.5192 35.2331 36.388 34.9723C36.2585 34.7116 35.219 32.1513 34.785 31.1101C34.3633 30.0968 33.9345 30.2351 33.616 30.2176C33.3115 30.2036 32.965 30.2001 32.6185 30.2001C32.272 30.2001 31.7085 30.3296 31.2325 30.8511C30.7547 31.3708 29.4125 32.6291 29.4125 35.1893C29.4125 37.7478 31.2745 40.2206 31.5352 40.5688C31.796 40.9153 35.2015 46.1688 40.4183 48.4211C41.6608 48.9566 42.6285 49.2768 43.3827 49.5148C44.6287 49.9121 45.7628 49.8561 46.6588 49.7213C47.6562 49.5726 49.7353 48.4631 50.1693 47.2486C50.6015 46.0341 50.6015 44.9928 50.472 44.7758C50.3425 44.5588 49.996 44.4293 49.4745 44.1686H49.4763ZM39.9878 57.1238H39.9808C36.8823 57.1244 33.8407 56.2915 31.1747 54.7123L30.5448 54.3378L23.9963 56.0563L25.7445 49.6723L25.3333 49.0178C23.601 46.2604 22.6843 43.0692 22.689 39.8128C22.6925 30.2753 30.452 22.5158 39.9947 22.5158C44.6147 22.5158 48.9583 24.3183 52.2238 27.5873C53.8344 29.1913 55.111 31.0988 55.9797 33.1994C56.8484 35.3 57.292 37.552 57.2848 39.8251C57.2812 49.3626 49.5217 57.1238 39.9878 57.1238ZM54.7088 25.1041C52.7806 23.1632 50.4864 21.6243 47.9592 20.5765C45.4319 19.5287 42.7218 18.9929 39.986 19.0001C28.5165 19.0001 19.1785 28.3363 19.175 39.8111C19.1697 43.4629 20.1277 47.0515 21.9523 50.2148L19 61.0001L30.032 58.1056C33.0838 59.7683 36.5037 60.6395 39.979 60.6396H39.9878C51.4572 60.6396 60.7952 51.3033 60.7988 39.8268C60.8072 37.0921 60.2733 34.3827 59.228 31.8556C58.1827 29.3285 56.6466 27.0337 54.7088 25.1041Z" fill="white"/>
</g>
<defs>
<clipPath id="clip0_113_288">
<rect width="42" height="42" fill="white" transform="translate(19 19)"/>
</clipPath>
</defs>
</svg>
