<svg width="16" height="16" viewBox="0 0 16 16" fill="none" xmlns="http://www.w3.org/2000/svg">
<path fill-rule="evenodd" clip-rule="evenodd" d="M8 3C8.5985 3 9.2124 3.01375 9.8074 3.03625L10.5102 3.06625L11.1829 3.10188L11.8129 3.14L12.3883 3.18C13.0127 3.22267 13.6003 3.46059 14.0477 3.8519C14.495 4.24321 14.7735 4.76284 14.8341 5.31938L14.8621 5.585L14.9146 6.15375C14.9636 6.74312 15 7.38562 15 8C15 8.61438 14.9636 9.25688 14.9146 9.84625L14.8621 10.415C14.853 10.5063 14.8439 10.5944 14.8341 10.6806C14.7735 11.2373 14.4949 11.757 14.0474 12.1483C13.5999 12.5396 13.0122 12.7775 12.3876 12.82L11.8136 12.8594L11.1836 12.8981L10.5102 12.9337L9.8074 12.9637C9.20528 12.9871 8.60268 12.9992 8 13C7.39732 12.9992 6.79472 12.9871 6.1926 12.9637L5.4898 12.9337L4.8171 12.8981L4.1871 12.8594L3.6117 12.82C2.98727 12.7773 2.39969 12.5394 1.95233 12.1481C1.50498 11.7568 1.2265 11.2372 1.1659 10.6806L1.1379 10.415L1.0854 9.84625C1.03188 9.23196 1.00339 8.61614 1 8C1 7.38562 1.0364 6.74312 1.0854 6.15375L1.1379 5.585C1.147 5.49375 1.1561 5.40562 1.1659 5.31938C1.22648 4.76294 1.50485 4.24338 1.95206 3.85209C2.39928 3.46079 2.98669 3.22281 3.611 3.18L4.1857 3.14L4.8157 3.10188L5.4891 3.06625L6.1919 3.03625C6.79425 3.0129 7.39708 3.00081 8 3ZM6.6 6.48438V9.51562C6.6 9.80438 6.95 9.98438 7.23 9.84062L10.17 8.325C10.234 8.29212 10.2871 8.24477 10.3241 8.18771C10.361 8.13065 10.3805 8.06591 10.3805 8C10.3805 7.93409 10.361 7.86935 10.3241 7.81229C10.2871 7.75523 10.234 7.70788 10.17 7.675L7.23 6.16C7.16613 6.12708 7.09368 6.10975 7.01993 6.10976C6.94618 6.10977 6.87374 6.12712 6.80988 6.16006C6.74603 6.193 6.69301 6.24038 6.65617 6.29742C6.61932 6.35446 6.59995 6.41915 6.6 6.485V6.48438Z" fill="white"/>
</svg>
