<svg width="44" height="44" viewBox="0 0 44 44" fill="none" xmlns="http://www.w3.org/2000/svg">
<g clip-path="url(#clip0_113_243)">
<circle cx="22" cy="22" r="22" fill="#0BBC5A"/>
<path d="M35.1754 15.7109C35.0197 15.1555 34.7165 14.6528 34.2979 14.256C33.8675 13.8471 33.34 13.5545 32.7652 13.406C30.6138 12.839 21.9948 12.839 21.9948 12.839C18.4016 12.7981 14.8092 12.9779 11.2381 13.3774C10.6633 13.5369 10.1367 13.8359 9.70536 14.248C9.28151 14.6558 8.9745 15.1587 8.81413 15.7097C8.42887 17.7852 8.24169 19.8925 8.2551 22.0033C8.24136 24.1123 8.42808 26.2189 8.81413 28.297C8.97107 28.8457 9.27693 29.3463 9.70192 29.7507C10.1269 30.155 10.6562 30.4471 11.2381 30.6018C13.4181 31.1677 21.9948 31.1677 21.9948 31.1677C25.5925 31.2086 29.1894 31.0288 32.7652 30.6293C33.34 30.4808 33.8675 30.1883 34.2979 29.7793C34.7217 29.3749 35.023 28.872 35.1742 28.3245C35.5695 26.2498 35.7618 24.1416 35.7482 22.0297C35.7779 19.9088 35.5859 17.7907 35.1754 15.7097V15.7109ZM19.2546 25.9257V18.0821L26.4257 22.0045L19.2546 25.9257Z" fill="white"/>
</g>
<defs>
<clipPath id="clip0_113_243">
<rect width="44" height="44" fill="white"/>
</clipPath>
</defs>
</svg>
